<svg width="115" height="105" viewBox="0 0 115 105" fill="none" xmlns="http://www.w3.org/2000/svg">
<g clip-path="url(#clip0_151_28)">
<path d="M110.472 32.0611C107.591 25.8247 103.408 20.1599 98.1564 15.3825C92.9239 10.5878 86.7196 6.76851 79.8894 4.13762C72.8083 1.3981 65.1944 -0.00810498 57.5039 0.00324195C49.7378 0.00324195 42.2125 1.38793 35.1184 4.13762C28.2882 6.76851 22.0839 10.5878 16.8514 15.3825C11.6007 20.1638 7.41248 25.8274 4.51764 32.0611C1.52338 38.5275 -0.0106292 45.4793 0.00748275 52.5C0.00748275 59.5743 1.52405 66.4453 4.53561 72.9389C7.41706 79.1752 11.6001 84.84 16.8514 89.6175C22.0839 94.4122 28.2882 98.2314 35.1184 100.862C42.1935 103.619 49.8114 105.026 57.5039 104.997C65.252 104.997 72.7773 103.628 79.8894 100.862C93.6729 95.5568 104.645 85.5504 110.472 72.9717C113.487 66.5219 115.028 59.5781 115 52.5656C115 45.4912 113.484 38.6531 110.472 32.1595V32.0611ZM57.5003 97.7189C30.1555 97.7189 7.97483 77.467 7.97483 52.5C7.97483 27.5329 30.1555 7.28105 57.5003 7.28105C84.8451 7.28105 107.026 27.5329 107.026 52.5C107.026 77.467 84.8451 97.7189 57.5003 97.7189ZM73.0361 18.0304H41.9645C37.5466 18.0282 33.8223 19.4523 30.7915 22.3026C27.7404 25.1048 26.2239 28.5239 26.2239 32.504V77.0568C26.2239 79.0223 26.86 80.594 28.1322 81.8409C29.4044 83.0189 31.0719 83.6882 33.167 83.6882C35.2993 83.6861 37.0219 83.0932 38.3348 81.9098C39.6465 80.7122 40.3006 79.1568 40.3006 77.175V30.9651H50.5572V77.0404C50.5572 78.9895 51.1933 80.5612 52.4295 81.7589C53.6658 82.9565 55.3692 83.5701 57.5003 83.5701C59.6314 83.5701 61.3384 82.9532 62.5711 81.7589C63.8217 80.5623 64.4458 78.9895 64.4434 77.0404V30.9651H74.718V77.0404C74.718 78.9895 75.354 80.5612 76.6658 81.7589C77.9775 82.9565 79.7169 83.5701 81.8336 83.5701C83.9287 83.5701 85.5962 82.9532 86.8684 81.7064C88.1586 80.4923 88.7947 78.9206 88.7947 77.0404V32.4876C88.7971 28.5064 87.2745 25.0993 84.227 22.2665C81.1939 19.4282 77.4708 17.9943 73.0325 17.9943L73.0361 18.0304Z" fill="#FFC702"/>
</g>
<defs>
<clipPath id="clip0_151_28">
<rect width="115" height="105" fill="white"/>
</clipPath>
</defs>
</svg>
