<svg width="88" height="92" viewBox="0 0 88 92" fill="none" xmlns="http://www.w3.org/2000/svg">
<path d="M28.25 72.8285C24.2863 71.7041 20.5938 69.9235 17.3125 67.6047C12.2448 64.0361 8.18145 59.2226 5.51388 53.6279C2.84631 48.0332 1.66441 41.8458 2.08203 35.6618C2.49965 29.4778 4.50272 23.5055 7.89828 18.3202C11.2938 13.135 15.9675 8.91151 21.469 6.05666C26.9705 3.20181 33.1144 1.81178 39.309 2.02047C45.5036 2.22916 51.5401 4.02954 56.837 7.24818C62.1339 10.4668 66.5127 14.9953 69.5516 20.3973C72.5905 25.7993 74.187 31.8929 74.1875 38.091L85.125 54.4972L76.375 58.8722L75.4869 66.8829C75.0363 70.9079 71.4969 74.3379 67.2838 76.4204C62.9525 78.5597 58.875 82.4754 58.875 87.3097V89.4972M17.3125 67.6047V89.4972" stroke="#FFC702" stroke-width="4" stroke-linecap="round" stroke-linejoin="round"/>
</svg>
