<svg width="116" height="116" viewBox="0 0 116 116" fill="none" xmlns="http://www.w3.org/2000/svg">
<path d="M5.07495 101.5V87.9667C5.07495 85.3083 5.75967 82.8111 7.12912 80.475C8.49856 78.1389 10.3916 76.3667 12.8083 75.1583C16.9166 73.0639 21.5486 71.2917 26.7041 69.8417C31.8597 68.3917 37.5388 67.6667 43.7416 67.6667C49.9444 67.6667 55.6236 68.3917 60.7791 69.8417C65.9347 71.2917 70.5666 73.0639 74.6749 75.1583C77.0916 76.3667 78.9847 78.1389 80.3541 80.475C81.7236 82.8111 82.4083 85.3083 82.4083 87.9667V101.5H5.07495ZM30.0875 57.1542C26.3013 53.3681 24.4083 48.8167 24.4083 43.5H23.2C22.475 43.5 21.8917 43.2793 21.4503 42.8378C21.0088 42.3964 20.7865 41.8116 20.7833 41.0833C20.7801 40.3551 21.0024 39.7703 21.4503 39.3288C21.8982 38.8874 22.4814 38.6667 23.2 38.6667H24.4083C24.4083 35.0417 25.2944 31.7792 27.0666 28.8792C28.8388 25.9792 31.175 23.6833 34.075 21.9917V26.5833C34.075 27.3083 34.2973 27.8932 34.742 28.3378C35.1866 28.7825 35.7698 29.0032 36.4916 29C37.2134 28.9968 37.7982 28.7761 38.2461 28.3378C38.694 27.8996 38.9147 27.3148 38.9083 26.5833V20.0583C39.6333 19.8167 40.3986 19.6362 41.2041 19.517C42.0097 19.3978 42.8555 19.3366 43.7416 19.3333C44.6277 19.3301 45.4736 19.3913 46.2791 19.517C47.0847 19.6427 47.85 19.8231 48.575 20.0583V26.5833C48.575 27.3083 48.7973 27.8932 49.242 28.3378C49.6866 28.7825 50.2698 29.0032 50.9916 29C51.7134 28.9968 52.2982 28.7761 52.7461 28.3378C53.194 27.8996 53.4147 27.3148 53.4083 26.5833V21.9917C56.3083 23.6833 58.6444 25.9792 60.4166 28.8792C62.1888 31.7792 63.075 35.0417 63.075 38.6667H64.2833C65.0083 38.6667 65.5931 38.889 66.0378 39.3337C66.4825 39.7783 66.7032 40.3616 66.7 41.0833C66.6967 41.8051 66.476 42.3899 66.0378 42.8378C65.5996 43.2857 65.0147 43.5064 64.2833 43.5H63.075C63.075 48.8167 61.1819 53.3681 57.3958 57.1542C53.6097 60.9403 49.0583 62.8333 43.7416 62.8333C38.425 62.8333 33.8736 60.9403 30.0875 57.1542ZM50.5711 50.3295C52.4626 48.4348 53.4083 46.1583 53.4083 43.5H34.075C34.075 46.1583 35.0223 48.4348 36.917 50.3295C38.8116 52.2242 41.0865 53.1699 43.7416 53.1667C46.3967 53.1634 48.6732 52.2177 50.5711 50.3295ZM79.9916 72.5L79.2666 68.875C78.7833 68.7139 78.3209 68.5334 77.8795 68.3337C77.438 68.1339 77.0143 67.831 76.6083 67.425L73.225 68.6333L70.8083 64.2833L73.4666 61.8667V58.9667L70.8083 56.55L73.225 52.2L76.6083 53.4083C76.9305 53.0861 77.3333 52.8042 77.8166 52.5625C78.3 52.3208 78.7833 52.1194 79.2666 51.9583L79.9916 48.3333H84.825L85.55 51.9583C86.0333 52.1194 86.5166 52.3208 87 52.5625C87.4833 52.8042 87.8861 53.0861 88.2083 53.4083L91.5916 52.2L94.0083 56.55L91.35 58.9667V61.8667L94.0083 64.2833L91.5916 68.6333L88.2083 67.425C87.8055 67.8278 87.3834 68.1307 86.942 68.3337C86.5005 68.5367 86.0365 68.7171 85.55 68.875L84.825 72.5H79.9916ZM84.9458 62.9542C85.6708 62.2292 86.0333 61.3833 86.0333 60.4167C86.0333 59.45 85.6708 58.6042 84.9458 57.8792C84.2208 57.1542 83.3749 56.7917 82.4083 56.7917C81.4416 56.7917 80.5958 57.1542 79.8708 57.8792C79.1458 58.6042 78.7833 59.45 78.7833 60.4167C78.7833 61.3833 79.1458 62.2292 79.8708 62.9542C80.5958 63.6792 81.4416 64.0417 82.4083 64.0417C83.3749 64.0417 84.2208 63.6792 84.9458 62.9542ZM91.1083 48.3333L90.1416 43.2583C89.4166 43.0167 88.7512 42.7154 88.1455 42.3545C87.5397 41.9936 86.9967 41.5699 86.5166 41.0833L81.4416 42.775L78.0583 36.975L82.1666 33.35C82.0055 32.9472 81.925 32.625 81.925 32.3833V30.45C81.925 30.2083 82.0055 29.8861 82.1666 29.4833L78.0583 25.8583L81.4416 20.0583L86.5166 21.75C87 21.2667 87.5445 20.8429 88.1503 20.4788C88.7561 20.1147 89.4198 19.8134 90.1416 19.575L91.1083 14.5H97.875L98.8416 19.575C99.5666 19.8167 100.232 20.1196 100.838 20.4837C101.444 20.8478 101.987 21.2699 102.467 21.75L107.542 20.0583L110.925 25.8583L106.817 29.4833C106.978 29.8861 107.058 30.2083 107.058 30.45V32.3833C107.058 32.625 106.978 32.9472 106.817 33.35L110.925 36.975L107.542 42.775L102.467 41.0833C101.983 41.5667 101.44 41.9904 100.838 42.3545C100.235 42.7186 99.5698 43.0199 98.8416 43.2583L97.875 48.3333H91.1083ZM98.7788 35.7038C99.9485 34.5374 100.533 33.1083 100.533 31.4167C100.533 29.725 99.9485 28.2943 98.7788 27.1247C97.6091 25.955 96.1801 25.3718 94.4916 25.375C92.8032 25.3782 91.3725 25.9631 90.1996 27.1295C89.0267 28.2959 88.4435 29.725 88.45 31.4167C88.4564 33.1083 89.0412 34.539 90.2045 35.7087C91.3677 36.8783 92.7967 37.4616 94.4916 37.4583C96.1865 37.4551 97.6124 36.8703 98.7788 35.7038Z" fill="#FFC702"/>
</svg>
